<svg id="Layer_1" data-name="Layer 1" xmlns="http://www.w3.org/2000/svg" viewBox="0 0 1060 200.63"><defs><style>.cls-1,.cls-2{fill:#ed1c24;}.cls-1{fill-rule:evenodd;}.cls-3{fill:#fff;}</style></defs><path class="cls-1" d="M251,770.88c2.69,0,7-1.45,9.29-2.06,3.16-.81,5.69-1.57,9-2.37l32-8.51c2-.71,2-1,2.76-3.18s4.66-15.58,6.39-16.85c.23,2.79,6.57,18.46,7.57,22.7-2.6.21-5.11,1.29-7.79,1.95L248.86,779c-2.06,1.41-14,38.57-15.66,42.69-.92,2.31-1.68,5.44-2.7,7.57h47.55c.54-2.34,1.45-4.65,2.23-7,3.3-9.91.91-5.79,17.82-10.81l120-31.83c5-1.29,9.77-2.6,14.82-4.08,15.5-4.52,24.56-7.68,34.46-22.28,13.81-20.34,11.32-44.36-3.78-63.67-11.35-14.51-26.76-18.72-43-19.76H340.73c.19,2.34,2,6.84,2.86,9L362,731.77c.74,2.23,2.89,7.6,3,9.39,13.53-3.16,29.66-8.19,43.22-11.35-.69-3-1.82-5.16-2.78-8-.58-1.77-2.48-6.48-2.62-8.17,6.66-3.21,18.23-1.66,24.95,3.68a42.18,42.18,0,0,1,5.09,5.17c1.16,1.53,3.29,4.79,3.45,6.81-9.51,2.22-70.7,19.35-75.1,19.45L333.7,669.84H286.15c-.22,2.65-17.22,49.8-17.5,50.58l-15.39,44a64.14,64.14,0,0,1-2.22,6.42Zm0,0" transform="translate(-230.5 -649.22)"/><path class="cls-1" d="M384.48,795.73c.27,3.17,10.26,28.79,11.35,33.5h47.55c-.79-1.65-1.24-3.65-2-5.56s-1.26-3.4-2-5.59l-11.68-33.7Zm0,0" transform="translate(-230.5 -649.22)"/><path class="cls-1" d="M334.78,808.7l7,20.53h47.55c-1.24-5.3-10.59-29.28-10.81-31.88-3.16.07-8.08,1.9-10.91,2.59l-21.81,5.74c-2.82.8-9,2.06-11,3Zm0,0" transform="translate(-230.5 -649.22)"/><path class="cls-1" d="M810.35,745.66H832v-53a18.67,18.67,0,0,1,1.34,1.63l19.55,30.44c3.49-2.34,17-26.76,21.63-32.07v53h21.63V650.92c-23.43,0-17.95-2.44-24.76,8.82l-17.76,30.72-6.11-9.56c-2.16-3.6-3.85-6.68-6.06-10.34l-9.13-15.5c-3.43-5.95-2.38-4.14-22-4.14Zm0,0" transform="translate(-230.5 -649.22)"/><path class="cls-1" d="M1213.92,650.92v94.75h-19.5l-1-1.72-.05-.08-1.47-2.42-.15-.25c-.25-.47-.54-1-.88-1.55l-6.18-10.16-21.46-35.31v51.49h-22.38V650.92H1161c.71,3.09,19.94,34.09,23.18,39.5,1.39,2.36,6.44,11.46,8.15,12.71V650.92Z" transform="translate(-230.5 -649.22)"/><path class="cls-1" d="M1193.34,743.87a25.16,25.16,0,0,1-1.47-2.42Z" transform="translate(-230.5 -649.22)"/><polygon class="cls-1" points="525.39 1.7 525.39 96.45 503.78 96.45 503.78 59.14 478.4 59.14 478.4 96.45 456.77 96.45 456.77 1.7 478.4 1.7 478.4 38.99 503.78 38.99 503.78 1.7 525.39 1.7"/><path class="cls-1" d="M1054.28,697.17h-5.22V671.06h8.2A12.6,12.6,0,0,1,1070,683.75c0,8.35-7.19,13.42-15.67,13.42Zm-26.85,48.49h21.63V716.57h6.72l8.93,21.65a54.68,54.68,0,0,1,3,7.44h23.87l-7.89-16.73c-1.81-4.38-7.48-13.95-7.78-17.58,16.22-4.33,34.2-60.43-26.86-60.43h-21.63Zm0,0" transform="translate(-230.5 -649.22)"/><path class="cls-1" d="M561.2,685.23h1.49c.4,4.78,5.86,18.5,7.46,25.37H553.74A130.64,130.64,0,0,1,557.57,698c.85-2.53,3.41-10.07,3.63-12.78Zm-41.78,60.43h23.14c1.18-5.12,3.33-10,4.46-14.92h29.84c.37,4.39,3.41,10.36,4.47,14.92h23.14c-3.57-15.3-29.74-81.49-32.82-94.74H552.24l-28.8,82.34c-1.28,3.87-3.69,8.57-4,12.4Zm0,0" transform="translate(-230.5 -649.22)"/><path class="cls-1" d="M979.69,697.17h-5.23V671.06c8.87,0,20.89-1.2,20.89,13.44,0,8.08-7.52,12.67-15.66,12.67Zm-26.85,48.49h21.62V716.57c13.18,0,21.52.76,32.28-8.76,7.92-7,10.25-16.81,10.25-27,0-5.53-2-9.29-4-13.19-10-20.1-38.19-16.65-60.18-16.65Zm0,0" transform="translate(-230.5 -649.22)"/><polygon class="cls-1" points="1060 1.7 1060 21.84 1038.63 21.84 1038.63 96.45 1017 96.45 1017 21.84 995.63 21.84 995.63 1.7 1060 1.7"/><rect class="cls-2" x="541.81" y="1.7" width="21.62" height="94.74"/><rect class="cls-2" x="872.28" y="1.7" width="21.64" height="94.74"/><path class="cls-1" d="M609.89,728.71l-.95,1.29C609.17,729.66,609.5,729.21,609.89,728.71Z" transform="translate(-230.5 -649.22)"/><path class="cls-1" d="M665.29,738.6c-11.37,10.6-29.06,11.51-41.95,4.59-4.23-2.27-13.16-8.58-14.4-13.19l.95-1.29.3-.4,9.2-12.49,6.92,5.67.16.15.7.58.08,0,.15.13.06.05h0c.29.24.61.47.93.73,9,6.74,24.53,7.8,24.53-7.37,0-6-6.8-8.94-11.51-10.87-9.81-4.07-20.24-8.31-25.07-18.19a28.18,28.18,0,0,1-1.92-17.62c2.25-10.78,13-18.4,24.37-19.67,11.73-1.29,25.93,2.4,31.28,10.41l-11.18,15.66c-3.85-2.58-7.88-6.71-14.17-6.71-3.58,0-9,1-9,5.22,0,9.89,11.58,8.94,23.92,16.36,4.1,2.46,7.85,5.12,10.38,9C677.67,711,675.85,728.76,665.29,738.6Z" transform="translate(-230.5 -649.22)"/><path class="cls-3" d="M543.51,792.58h-5.27v11.67h-2.61V792.58h-5.31l-7.78,11.67h-3.12l8.72-13.12-8.07-12.32H523l7.31,11.41h5.34V778.81h2.61v11.41h5.27l7.35-11.41h2.9l-8.06,12.32,8.72,13.12h-3.13Z" transform="translate(-230.5 -649.22)"/><path class="cls-3" d="M574.7,797.45H560.52l-3,6.8h-2.8l11.63-25.44H569l11.63,25.44h-2.83Zm-1-2.18-6.1-13.66-6.11,13.66Z" transform="translate(-230.5 -649.22)"/><path class="cls-3" d="M602.61,781.14a8.77,8.77,0,0,1,0,12.77c-1.84,1.54-4.39,2.31-7.63,2.31h-6.84v8h-2.69V778.81H595C598.22,778.81,600.77,779.59,602.61,781.14Zm-1.93,11.06a5.73,5.73,0,0,0,2-4.67,5.8,5.8,0,0,0-2-4.74,8.87,8.87,0,0,0-5.78-1.65h-6.76v12.72h6.76A8.81,8.81,0,0,0,600.68,792.2Z" transform="translate(-230.5 -649.22)"/><path class="cls-3" d="M632.15,778.81v25.44H629.5V792.51H613.58v11.74h-2.69V778.81h2.69v11.34H629.5V778.81Z" transform="translate(-230.5 -649.22)"/><path class="cls-3" d="M657,797.45H642.84l-3.05,6.8H637l11.63-25.44h2.65l11.63,25.44h-2.83Zm-1-2.18-6.1-13.66-6.11,13.66Z" transform="translate(-230.5 -649.22)"/><path class="cls-3" d="M694.19,778.81v25.44h-2.58V783.9l-10,17.12h-1.28l-10-17v20.24h-2.58V778.81H670l11,18.86L692,778.81Z" transform="translate(-230.5 -649.22)"/><path class="cls-3" d="M719.05,797.45H704.88l-3.06,6.8H699l11.62-25.44h2.66l11.63,25.44H722.1Zm-1-2.18L712,781.61l-6.1,13.66Z" transform="translate(-230.5 -649.22)"/><path class="cls-3" d="M749.83,778.81v25.44h-2.65V781.14H734.9l-.3,8.5a51.7,51.7,0,0,1-.85,8.49,10.53,10.53,0,0,1-2,4.79A4.62,4.62,0,0,1,728,804.5a8.62,8.62,0,0,1-2-.25l.22-2.4a5.06,5.06,0,0,0,1.2.15,3.19,3.19,0,0,0,2.6-1.27,9.41,9.41,0,0,0,1.5-4,50.06,50.06,0,0,0,.69-7.07l.37-10.9Z" transform="translate(-230.5 -649.22)"/><path class="cls-3" d="M775.94,789.93a7.41,7.41,0,0,1,2.38,6,7.68,7.68,0,0,1-2.52,6.23c-1.69,1.42-4.11,2.13-7.29,2.13h-10.1V778.81h2.65v9.09h8C772.06,787.9,774.36,788.58,775.94,789.93Zm-2.14,10.61a5.73,5.73,0,0,0,1.83-4.61q0-5.85-7.19-5.85h-7.38v12h7.38A8,8,0,0,0,773.8,800.54Zm8.92-21.73h2.65v25.44h-2.65Z" transform="translate(-230.5 -649.22)"/><path class="cls-3" d="M802.38,792.58h-5.81v11.67H794V778.81h2.62v11.41h5.81L811,778.81h2.9l-9.45,12.36,10,13.08h-3.09Zm14,9.35v8h-2.51v-5.71h-2.47v-2.32Z" transform="translate(-230.5 -649.22)"/><path class="cls-3" d="M818.41,793.28h9.52v2.25h-9.52Z" transform="translate(-230.5 -649.22)"/><path class="cls-3" d="M839,802.78a12.31,12.31,0,0,1-4.8-4.64,13.49,13.49,0,0,1,0-13.22,12.31,12.31,0,0,1,4.8-4.64,14.72,14.72,0,0,1,13.66,0,12.32,12.32,0,0,1,4.78,4.64,13.43,13.43,0,0,1,0,13.26,12.32,12.32,0,0,1-4.78,4.64,14.72,14.72,0,0,1-13.66,0Zm-5.64-12.34h25.12v2.18H833.36Zm17.94,10.27a10,10,0,0,0,3.82-3.78,11.26,11.26,0,0,0,0-10.8,10,10,0,0,0-3.82-3.78,11.64,11.64,0,0,0-10.92,0,9.92,9.92,0,0,0-3.85,3.78,11.11,11.11,0,0,0,0,10.8,9.92,9.92,0,0,0,3.85,3.78,11.64,11.64,0,0,0,10.92,0Z" transform="translate(-230.5 -649.22)"/><path class="cls-3" d="M886.88,778.81v25.44h-2.65V792.51H868.31v11.74h-2.69V778.81h2.69v11.34h15.92V778.81Z" transform="translate(-230.5 -649.22)"/><path class="cls-3" d="M918.43,801.93v8h-2.51v-5.71H893.71l0,5.71h-2.51l0-8h1.28q2.5-.15,3.49-4a53.54,53.54,0,0,0,1.2-10.88l.28-8.25h17.16v23.12Zm-19.76-5q-.7,3.76-2.38,5H912V781.14H899.78l-.22,6.17A63,63,0,0,1,898.67,796.89Z" transform="translate(-230.5 -649.22)"/><path class="cls-3" d="M923.91,778.81h2.66v25.44h-2.66Z" transform="translate(-230.5 -649.22)"/><path class="cls-3" d="M952.3,781.14a8.77,8.77,0,0,1,0,12.77c-1.85,1.54-4.39,2.31-7.64,2.31h-6.83v8h-2.69V778.81h9.52A11.53,11.53,0,0,1,952.3,781.14Zm-1.93,11.06a5.73,5.73,0,0,0,2-4.67,5.8,5.8,0,0,0-2-4.74,8.87,8.87,0,0,0-5.78-1.65h-6.76v12.72h6.76A8.81,8.81,0,0,0,950.37,792.2Z" transform="translate(-230.5 -649.22)"/><path class="cls-3" d="M960.58,778.81h2.66v25.44h-2.66Z" transform="translate(-230.5 -649.22)"/><path class="cls-3" d="M976.12,802.8a12.27,12.27,0,0,1-4.76-4.64,13.57,13.57,0,0,1,0-13.26,12.19,12.19,0,0,1,4.78-4.64,14.83,14.83,0,0,1,12.06-.72,10.82,10.82,0,0,1,4.07,2.76L990.56,784a10.12,10.12,0,0,0-7.52-3,11.08,11.08,0,0,0-5.49,1.38,10.18,10.18,0,0,0-3.87,3.78,11,11,0,0,0,0,10.76,10.18,10.18,0,0,0,3.87,3.78,11.08,11.08,0,0,0,5.49,1.38,10,10,0,0,0,7.52-3.05l1.71,1.71a11,11,0,0,1-4.09,2.78,14.08,14.08,0,0,1-5.25,1A13.91,13.91,0,0,1,976.12,802.8Z" transform="translate(-230.5 -649.22)"/><path class="cls-3" d="M1014.15,781.14h-8.94v23.11h-2.65V781.14h-8.94v-2.33h20.53Z" transform="translate(-230.5 -649.22)"/><path class="cls-3" d="M1018.88,778.81h2.65v25.44h-2.65Z" transform="translate(-230.5 -649.22)"/><path class="cls-3" d="M1038.54,792.58h-5.82v11.67h-2.62V778.81h2.62v11.41h5.82l8.61-11.41h2.91l-9.45,12.36,10,13.08h-3.09Z" transform="translate(-230.5 -649.22)"/><path class="cls-3" d="M1073.57,792.58h-5.81v11.67h-2.62V778.81h2.62v11.41h5.81l8.61-11.41h2.91l-9.45,12.36,10,13.08h-3.09Z" transform="translate(-230.5 -649.22)"/><path class="cls-3" d="M1094.05,802.78a12.31,12.31,0,0,1-4.8-4.64,13.56,13.56,0,0,1,0-13.22,12.31,12.31,0,0,1,4.8-4.64,14.74,14.74,0,0,1,13.67,0,12.37,12.37,0,0,1,4.77,4.64,13.43,13.43,0,0,1,0,13.26,12.37,12.37,0,0,1-4.77,4.64,14.74,14.74,0,0,1-13.67,0Zm12.3-2.07a9.84,9.84,0,0,0,3.82-3.78,11.26,11.26,0,0,0,0-10.8,9.84,9.84,0,0,0-3.82-3.78,11,11,0,0,0-5.45-1.36,11.18,11.18,0,0,0-5.47,1.36,10,10,0,0,0-3.85,3.78,11.11,11.11,0,0,0,0,10.8,10,10,0,0,0,3.85,3.78,11.07,11.07,0,0,0,5.47,1.36A10.94,10.94,0,0,0,1106.35,800.71Z" transform="translate(-230.5 -649.22)"/><path class="cls-3" d="M1147.09,778.81v25.44h-2.58V783.9l-10,17.12h-1.27l-10-17v20.24h-2.58V778.81h2.22l11,18.86,10.94-18.86Z" transform="translate(-230.5 -649.22)"/><path class="cls-3" d="M1177.07,778.81v25.44h-2.65V781.14h-16.1v23.11h-2.65V778.81Z" transform="translate(-230.5 -649.22)"/><path class="cls-3" d="M1201.93,797.45h-14.17l-3,6.8h-2.8l11.63-25.44h2.65l11.63,25.44H1205Zm-1-2.18-6.1-13.66-6.11,13.66Z" transform="translate(-230.5 -649.22)"/><path class="cls-3" d="M1234,778.81v25.44h-2.65V792.51h-15.92v11.74h-2.69V778.81h2.69v11.34h15.92V778.81Z" transform="translate(-230.5 -649.22)"/><path class="cls-3" d="M1242.53,778.81h2.65v21.08l16.28-21.08h2.44v25.44h-2.65v-21l-16.29,21h-2.43Z" transform="translate(-230.5 -649.22)"/><path class="cls-3" d="M1290.5,778.81v25.44h-2.65v-7.7h-7.6c-.34,0-.82,0-1.45-.08l-5.34,7.78h-2.87l5.77-8.25a7.79,7.79,0,0,1-4.29-3,8.9,8.9,0,0,1-1.48-5.22,8.37,8.37,0,0,1,2.7-6.65,10.8,10.8,0,0,1,7.33-2.36Zm-15.39,13.76a7.67,7.67,0,0,0,5.36,1.69h7.38V781.14h-7.13a8.1,8.1,0,0,0-5.5,1.69,6.14,6.14,0,0,0-2,4.92A6.24,6.24,0,0,0,1275.11,792.57Z" transform="translate(-230.5 -649.22)"/><path class="cls-3" d="M533.93,825.47a7.41,7.41,0,0,1,0,10.81,9.78,9.78,0,0,1-6.45,2h-5.79V845h-2.27V823.5h8.06A9.73,9.73,0,0,1,533.93,825.47Zm-1.63,9.36a4.83,4.83,0,0,0,1.69-4,4.9,4.9,0,0,0-1.69-4,7.43,7.43,0,0,0-4.89-1.4h-5.72v10.76h5.72A7.48,7.48,0,0,0,532.3,834.83Z" transform="translate(-230.5 -649.22)"/><path class="cls-3" d="M556.17,843.06v2H540.94V823.5H555.7v2H543.22v7.65h11.13v1.94H543.22v8Z" transform="translate(-230.5 -649.22)"/><path class="cls-3" d="M568.34,835.15h-4.92V845h-2.21V823.5h2.21v9.65h4.92l7.29-9.65h2.46l-8,10.45L578.55,845h-2.61Z" transform="translate(-230.5 -649.22)"/><path class="cls-3" d="M599.34,823.5V845h-2.25V825.47H586.7l-.25,7.19a43.37,43.37,0,0,1-.72,7.18A8.88,8.88,0,0,1,584,843.9a3.92,3.92,0,0,1-3.1,1.34,6.94,6.94,0,0,1-1.72-.22l.18-2a4.06,4.06,0,0,0,1,.13,2.65,2.65,0,0,0,2.2-1.08,7.81,7.81,0,0,0,1.28-3.33,42,42,0,0,0,.58-6l.31-9.22Z" transform="translate(-230.5 -649.22)"/><path class="cls-3" d="M620.37,839.27h-12L605.79,845h-2.36l9.84-21.52h2.24L625.35,845H623Zm-.83-1.84-5.17-11.56-5.16,11.56Z" transform="translate(-230.5 -649.22)"/><path class="cls-3" d="M651.83,823.5V845h-2.19V827.8l-8.45,14.49h-1.08l-8.46-14.39V845h-2.18V823.5h1.88l9.35,16,9.25-16Z" transform="translate(-230.5 -649.22)"/><path class="cls-3" d="M677.07,823.5V845h-2.24v-9.93H661.36V845h-2.28V823.5h2.28v9.59h13.47V823.5Z" transform="translate(-230.5 -649.22)"/><path class="cls-3" d="M688,843.78a10.39,10.39,0,0,1-4.05-3.92,11.38,11.38,0,0,1,0-11.19,10.32,10.32,0,0,1,4.05-3.92,12.42,12.42,0,0,1,11.57,0,10.43,10.43,0,0,1,4,3.92,11.37,11.37,0,0,1,0,11.22,10.36,10.36,0,0,1-4,3.92,11.72,11.72,0,0,1-5.77,1.42A11.9,11.9,0,0,1,688,843.78ZM698.38,842a8.35,8.35,0,0,0,3.23-3.2,9.49,9.49,0,0,0,0-9.13,8.28,8.28,0,0,0-3.23-3.2,9.26,9.26,0,0,0-4.61-1.16,9.39,9.39,0,0,0-4.63,1.16,8.42,8.42,0,0,0-3.26,3.2,9.42,9.42,0,0,0,0,9.13,8.49,8.49,0,0,0,3.26,3.2,9.38,9.38,0,0,0,4.63,1.15A9.25,9.25,0,0,0,698.38,842Z" transform="translate(-230.5 -649.22)"/><path class="cls-3" d="M709,835.74H717v1.9H709Z" transform="translate(-230.5 -649.22)"/><path class="cls-3" d="M740.6,823.5V845h-2.24V825.47H724.74V845h-2.25V823.5Z" transform="translate(-230.5 -649.22)"/><path class="cls-3" d="M762.37,825.47a7.41,7.41,0,0,1,0,10.81,9.78,9.78,0,0,1-6.45,2h-5.79V845h-2.27V823.5h8.06A9.73,9.73,0,0,1,762.37,825.47Zm-1.63,9.36a4.83,4.83,0,0,0,1.69-4,4.9,4.9,0,0,0-1.69-4,7.43,7.43,0,0,0-4.89-1.4h-5.72v10.76h5.72A7.48,7.48,0,0,0,760.74,834.83Z" transform="translate(-230.5 -649.22)"/><path class="cls-3" d="M773.33,843.78a10.39,10.39,0,0,1-4.05-3.92,11.45,11.45,0,0,1,0-11.19,10.32,10.32,0,0,1,4.05-3.92,12.42,12.42,0,0,1,11.57,0,10.43,10.43,0,0,1,4,3.92,11.37,11.37,0,0,1,0,11.22,10.36,10.36,0,0,1-4,3.92,11.72,11.72,0,0,1-5.77,1.42A11.9,11.9,0,0,1,773.33,843.78ZM783.74,842a8.35,8.35,0,0,0,3.23-3.2,9.49,9.49,0,0,0,0-9.13,8.28,8.28,0,0,0-3.23-3.2,9.26,9.26,0,0,0-4.61-1.16,9.39,9.39,0,0,0-4.63,1.16,8.42,8.42,0,0,0-3.26,3.2,9.42,9.42,0,0,0,0,9.13,8.49,8.49,0,0,0,3.26,3.2,9.38,9.38,0,0,0,4.63,1.15A9.25,9.25,0,0,0,783.74,842Z" transform="translate(-230.5 -649.22)"/><path class="cls-3" d="M795.86,823.5h2.24v17.83l13.78-17.83h2.06V845h-2.25v-17.8L797.92,845h-2.06Z" transform="translate(-230.5 -649.22)"/><path class="cls-3" d="M833.88,835.68a4.85,4.85,0,0,1,1.21,3.32,5,5,0,0,1-1.16,3.29,7.55,7.55,0,0,1-3.11,2.17,11.54,11.54,0,0,1-4.21.75,13.29,13.29,0,0,1-4.23-.69,11.55,11.55,0,0,1-3.74-2.08l.83-1.63a10.1,10.1,0,0,0,3.23,1.83,11.09,11.09,0,0,0,3.66.63,9.09,9.09,0,0,0,3.23-.55,5.64,5.64,0,0,0,2.35-1.58,3.65,3.65,0,0,0,.88-2.45,3.29,3.29,0,0,0-1.48-2.89,7.21,7.21,0,0,0-4.15-1h-4.61v-1.84h4.49a5.72,5.72,0,0,0,3.55-1,3.18,3.18,0,0,0,1.28-2.69,3.45,3.45,0,0,0-1.63-3,7.18,7.18,0,0,0-4.09-1.09,11.64,11.64,0,0,0-6.09,1.78l-.77-1.87a13.29,13.29,0,0,1,6.92-1.91,11,11,0,0,1,4,.71,6.72,6.72,0,0,1,2.87,2,5.09,5.09,0,0,1,.11,6.07,5.17,5.17,0,0,1-2.68,1.77A6.26,6.26,0,0,1,833.88,835.68Z" transform="translate(-230.5 -649.22)"/><path class="cls-3" d="M856.93,835.72a5.72,5.72,0,0,1-.82,7.8,9.54,9.54,0,0,1-5.82,1.5h-9.54V823.5h9a9,9,0,0,1,5.38,1.41A4.77,4.77,0,0,1,857,829a5,5,0,0,1-.92,3.06,5.52,5.52,0,0,1-2.59,1.86A6,6,0,0,1,856.93,835.72ZM843,833.25h6.58a6.22,6.22,0,0,0,3.83-1,3.94,3.94,0,0,0,0-5.9,6.22,6.22,0,0,0-3.83-1H843Zm12.85,5.81q0-4.06-5.56-4.06H843v8.21h7.29Q855.86,843.21,855.85,839.06Z" transform="translate(-230.5 -649.22)"/><path class="cls-3" d="M867.43,843.78a10.42,10.42,0,0,1-4.06-3.92,11.45,11.45,0,0,1,0-11.19,10.35,10.35,0,0,1,4.06-3.92,12.4,12.4,0,0,1,11.56,0,10.43,10.43,0,0,1,4,3.92,11.37,11.37,0,0,1,0,11.22,10.36,10.36,0,0,1-4,3.92,11.67,11.67,0,0,1-5.77,1.42A11.83,11.83,0,0,1,867.43,843.78ZM877.84,842a8.42,8.42,0,0,0,3.23-3.2,9.56,9.56,0,0,0,0-9.13,8.35,8.35,0,0,0-3.23-3.2,9.78,9.78,0,0,0-9.24,0,8.36,8.36,0,0,0-3.26,3.2,9.35,9.35,0,0,0,0,9.13,8.43,8.43,0,0,0,3.26,3.2,9.86,9.86,0,0,0,9.24,0Z" transform="translate(-230.5 -649.22)"/><path class="cls-3" d="M909.11,843.06v6.79H907V845H888.2l0,4.83h-2.12l0-6.79h1.07c1.42-.09,2.4-1.21,3-3.37a44.91,44.91,0,0,0,1-9.21l.25-7h14.51v19.56ZM892.4,838.8q-.6,3.18-2,4.26h13.26V825.47h-10.3l-.19,5.22A53.88,53.88,0,0,1,892.4,838.8Z" transform="translate(-230.5 -649.22)"/><path class="cls-3" d="M917.4,843.79a10.26,10.26,0,0,1-4-3.92,11.51,11.51,0,0,1,0-11.22,10.29,10.29,0,0,1,4-3.92,11.87,11.87,0,0,1,5.78-1.42,12,12,0,0,1,4.43.8,9.43,9.43,0,0,1,3.45,2.34l-1.45,1.45a8.58,8.58,0,0,0-6.37-2.56,9.35,9.35,0,0,0-4.64,1.17,8.59,8.59,0,0,0-3.27,3.2,9.29,9.29,0,0,0,0,9.1,8.52,8.52,0,0,0,3.27,3.2,9.35,9.35,0,0,0,4.64,1.17,8.46,8.46,0,0,0,6.37-2.58l1.45,1.44a9.29,9.29,0,0,1-3.46,2.35,11.82,11.82,0,0,1-4.45.82A11.65,11.65,0,0,1,917.4,843.79Z" transform="translate(-230.5 -649.22)"/><path class="cls-3" d="M949.58,825.47H942V845h-2.24V825.47H932.2v-2h17.38Z" transform="translate(-230.5 -649.22)"/><path class="cls-3" d="M969.75,835.72a5.72,5.72,0,0,1-.82,7.8,9.54,9.54,0,0,1-5.82,1.5h-9.54V823.5h8.95a9,9,0,0,1,5.38,1.41,4.75,4.75,0,0,1,1.94,4.09,5,5,0,0,1-.92,3.06,5.54,5.54,0,0,1-2.58,1.86A6,6,0,0,1,969.75,835.72Zm-13.93-2.47h6.58a6.22,6.22,0,0,0,3.83-1,3.92,3.92,0,0,0,0-5.9,6.22,6.22,0,0,0-3.83-1h-6.58Zm12.85,5.81q0-4.06-5.56-4.06h-7.29v8.21h7.29Q968.68,843.21,968.67,839.06Z" transform="translate(-230.5 -649.22)"/><path class="cls-3" d="M991.83,843.06v2H976.61V823.5h14.76v2H978.88v7.65H990v1.94H978.88v8Z" transform="translate(-230.5 -649.22)"/><path class="cls-3" d="M1014.86,823.5V845h-2.25v-9.93H999.15V845h-2.28V823.5h2.28v9.59h13.46V823.5Z" transform="translate(-230.5 -649.22)"/><path class="cls-3" d="M1040.1,823.5V845h-2.24v-9.93h-13.47V845h-2.27V823.5h2.27v9.59h13.47V823.5Z" transform="translate(-230.5 -649.22)"/><path class="cls-3" d="M1061.14,839.27h-12l-2.59,5.75h-2.37L1054,823.5h2.25l9.84,21.52h-2.4Zm-.83-1.84-5.17-11.56L1050,837.43Z" transform="translate(-230.5 -649.22)"/><path class="cls-3" d="M1084.51,823.5V845h-2.25v-6.51h-6.42c-.29,0-.7,0-1.23-.07l-4.52,6.58h-2.43l4.89-7a6.53,6.53,0,0,1-3.63-2.5,7.5,7.5,0,0,1-1.26-4.41,7.06,7.06,0,0,1,2.29-5.63,9.09,9.09,0,0,1,6.19-2Zm-13,11.64a6.51,6.51,0,0,0,4.54,1.43h6.24v-11.1h-6a6.84,6.84,0,0,0-4.66,1.43,5.2,5.2,0,0,0-1.65,4.16A5.28,5.28,0,0,0,1071.48,835.14Z" transform="translate(-230.5 -649.22)"/><path class="cls-3" d="M1107,835.15H1102V845h-2.21V823.5H1102v9.65H1107l7.29-9.65h2.46l-8,10.45,8.45,11.07h-2.61Z" transform="translate(-230.5 -649.22)"/><path class="cls-3" d="M1124.28,843.78a10.48,10.48,0,0,1-4.06-3.92,11.45,11.45,0,0,1,0-11.19,10.41,10.41,0,0,1,4.06-3.92,12.4,12.4,0,0,1,11.56,0,10.45,10.45,0,0,1,4.05,3.92,11.44,11.44,0,0,1,0,11.22,10.38,10.38,0,0,1-4.05,3.92,11.65,11.65,0,0,1-5.76,1.42A11.87,11.87,0,0,1,1124.28,843.78Zm10.41-1.75a8.42,8.42,0,0,0,3.23-3.2,9.49,9.49,0,0,0,0-9.13,8.35,8.35,0,0,0-3.23-3.2,9.26,9.26,0,0,0-4.61-1.16,9.36,9.36,0,0,0-4.63,1.16,8.42,8.42,0,0,0-3.26,3.2,9.42,9.42,0,0,0,0,9.13,8.49,8.49,0,0,0,3.26,3.2,9.35,9.35,0,0,0,4.63,1.15A9.25,9.25,0,0,0,1134.69,842Z" transform="translate(-230.5 -649.22)"/><path class="cls-3" d="M1169.16,823.5V845H1167V827.8l-8.46,14.49h-1.07L1149,827.9V845h-2.18V823.5h1.87l9.35,16,9.26-16Z" transform="translate(-230.5 -649.22)"/><path class="cls-3" d="M1194.53,823.5V845h-2.24V825.47h-13.63V845h-2.24V823.5Z" transform="translate(-230.5 -649.22)"/><path class="cls-3" d="M1215.56,839.27h-12L1201,845h-2.37l9.84-21.52h2.25l9.84,21.52h-2.4Zm-.83-1.84-5.16-11.56-5.17,11.56Z" transform="translate(-230.5 -649.22)"/><path class="cls-3" d="M1242.65,823.5V845h-2.24v-9.93h-13.47V845h-2.27V823.5h2.27v9.59h13.47V823.5Z" transform="translate(-230.5 -649.22)"/><path class="cls-3" d="M1249.91,823.5h2.25v17.83l13.77-17.83H1268V845h-2.24v-17.8L1252,845h-2.06Z" transform="translate(-230.5 -649.22)"/><path class="cls-3" d="M1290.5,823.5V845h-2.24v-6.51h-6.43c-.29,0-.7,0-1.23-.07l-4.52,6.58h-2.43l4.89-7a6.53,6.53,0,0,1-3.63-2.5,7.5,7.5,0,0,1-1.26-4.41,7.06,7.06,0,0,1,2.29-5.63,9.11,9.11,0,0,1,6.2-2Zm-13,11.64a6.48,6.48,0,0,0,4.53,1.43h6.25v-11.1h-6a6.86,6.86,0,0,0-4.66,1.43,6.12,6.12,0,0,0-.09,8.24Z" transform="translate(-230.5 -649.22)"/></svg>