<svg id="Layer_1" data-name="Layer 1" xmlns="http://www.w3.org/2000/svg" viewBox="0 0 418.49 418.49"><defs><style>.cls-1{fill:#fff;}.cls-2{fill:#ff5f00;}</style></defs><circle class="cls-1" cx="209.24" cy="209.24" r="209.24"/><g id="_542_Device_Print_Printer" data-name=" 542 Device Print Printer"><path class="cls-2" d="M233.76,265.91a9.79,9.79,0,0,0-3.52.5c2.52-12-7.58-25-21.71-25a21.43,21.43,0,0,0-21.71,21.15c0,.11,0,.21,0,.32a9.76,9.76,0,0,0,.5,3.52c-1,0-2-.5-3.52-.5a21.43,21.43,0,0,0-21.71,21.15v.32a21.8,21.8,0,0,0,25.24,21.46c-2.52,12,7.58,25,21.71,25a21.7,21.7,0,0,0,21.7-25c12.12,2.5,25.25-7.49,25.25-21.46A22.19,22.19,0,0,0,233.76,265.91Zm-24.74-12a9,9,0,0,1,9.09,8.91v.08c0,4-5.05,10-9.09,15-4.54-5-9.09-11-9.09-15a9,9,0,0,1,9-9Zm-33.84,33.45a9,9,0,0,1,9-9h.08c4,0,10.09,5,15.14,9-5,4.49-11.11,9-15.14,9-5.05.5-9.09-4-9.09-9ZM209,321.32a9,9,0,0,1-9.09-8.92v-.07c0-4,4.55-10,9.09-15,4.55,5,9.09,11,9.09,15a9,9,0,0,1-9,9Zm24.74-24.47c-4,0-10.1-4.49-15.14-9,5-4.49,11.1-9,15.14-9a9,9,0,0,1,9.1,8.91v.09a9.33,9.33,0,0,1-9.1,9Z"/><path class="cls-2" d="M130.25,166.07a15.66,15.66,0,1,0-15.84,15.47h.19A15.64,15.64,0,0,0,130.25,166.07Zm-19.19,0a3,3,0,1,1,3.07,3h0a3.24,3.24,0,0,1-3-3Z"/><path class="cls-2" d="M152.48,181.54a15.51,15.51,0,1,0-15.66-15.47A15.34,15.34,0,0,0,152,181.55Zm0-19a3,3,0,1,1-3,3C149,164.07,150.44,162.57,152.48,162.57Z"/><path class="cls-2" d="M313,262.41A25.72,25.72,0,0,0,338.8,237V150.6A25.73,25.73,0,0,0,313,125.13H307v-19a6.65,6.65,0,0,0-6.57-6.48H281.23V68.23a6.64,6.64,0,0,0-6.56-6.49H142.84a6.64,6.64,0,0,0-6.56,6.49V99.66H117.12a6.64,6.64,0,0,0-6.57,6.48v19H98.43a25.72,25.72,0,0,0-25.75,25.46v86.88a25.71,25.71,0,0,0,25.75,25.46h31.31v87.36a6.64,6.64,0,0,0,6.57,6.48H281.74a6.63,6.63,0,0,0,6.56-6.48V262.41ZM294.36,112.66v12.47H281.74V112.66ZM269.11,75.21v49.92H149V100.18h82.28a6.49,6.49,0,0,0,.43-13,3.09,3.09,0,0,0-.43,0H149V74.71H269.11ZM123.68,112.66h12.63v12.47H123.68ZM85.81,237.43V150.6a13,13,0,0,1,13-13H313a13,13,0,0,1,13.14,12.81v6.15H212.05a6.49,6.49,0,0,0-.43,13H325.67v68.38a13,13,0,0,1-12.94,13h-6.25V226a6.65,6.65,0,0,0-6.56-6.5H116.63a6.67,6.67,0,0,0-6.57,6.5v24.95H97.94c-6.08-1-12.13-6.47-12.13-13.46Zm37.87,12.48V231h6.57v19Zm19.19,93.84V231.48H275.68v87.34h-19.2a6.49,6.49,0,0,0-.42,13h19.62v12.48H142.87Zm145-112.27h6.57v19h-6.57Z"/><path class="cls-2" d="M249.93,87.67a6.5,6.5,0,1,1-6.57,6.49,6.49,6.49,0,0,1,6.57-6.49Z"/><path class="cls-2" d="M237.3,318.32a6.49,6.49,0,1,1-6.56,6.49A6.49,6.49,0,0,1,237.3,318.32Z"/><path class="cls-2" d="M193.37,156.05a6.5,6.5,0,1,1-6.56,6.5A6.5,6.5,0,0,1,193.37,156.05Z"/><path class="cls-2" d="M344.86,100.18a6.49,6.49,0,1,1-6.57,6.48A6.49,6.49,0,0,1,344.86,100.18Z"/><path class="cls-2" d="M105,75.21a6.5,6.5,0,1,1-6.57,6.5,6.5,6.5,0,0,1,6.57-6.5Z"/><path class="cls-2" d="M73.18,106.16a6.5,6.5,0,1,1-6.56,6.5,6.49,6.49,0,0,1,6.56-6.5Z"/><path class="cls-2" d="M111.06,330.8a6.49,6.49,0,1,1-6.56,6.49,6.49,6.49,0,0,1,6.56-6.49Z"/><path class="cls-2" d="M313,330.8a6.49,6.49,0,1,1-6.56,6.49A6.48,6.48,0,0,1,313,330.8Z"/><path class="cls-2" d="M79.75,287.37a19,19,0,1,0,19.19,19C98.94,295.85,89.85,287.37,79.75,287.37Zm0,25a6.5,6.5,0,1,1,6.56-6.5c-.5,4-3,6.5-6.56,6.5Z"/><path class="cls-2" d="M332.25,268.9a25,25,0,1,0,25.24,25A25.18,25.18,0,0,0,332.25,268.9Zm0,37.44a12.5,12.5,0,1,1,.24,0Z"/></g></svg>