<svg id="Layer_1" data-name="Layer 1" xmlns="http://www.w3.org/2000/svg" viewBox="0 0 418.48 418.48"><defs><style>.cls-1{fill:#fff;}.cls-2{fill:#ff5f00;}</style></defs><circle class="cls-1" cx="209.24" cy="209.24" r="209.24"/><path class="cls-2" d="M262.39,224.62a46.22,46.22,0,0,0-18.68-13.36,220.64,220.64,0,0,0-26.51-8.11V140.09A81.32,81.32,0,0,1,236.61,144,90.13,90.13,0,0,1,250,149.56a7.65,7.65,0,0,0,10.55-3.8h0a7.63,7.63,0,0,0-3.33-9.67,85,85,0,0,0-16-6.65,99.48,99.48,0,0,0-24-4.28v-19a8.05,8.05,0,0,0-8-8.05h0a8,8,0,0,0-8.05,8.05V125.5q-24.42,2.44-37.09,14.34a40.25,40.25,0,0,0-13.24,30.62q0,14.67,7.21,23.54a46,46,0,0,0,18.09,13.48,175.48,175.48,0,0,0,25,8.08v62.58a88.29,88.29,0,0,1-25.86-6.22,75.94,75.94,0,0,1-14.9-7.94,7.52,7.52,0,0,0-11,2.8h0a7.5,7.5,0,0,0,2,9.27,71.57,71.57,0,0,0,19.43,10.65,107.51,107.51,0,0,0,30.35,6.61v19a8,8,0,0,0,8.05,8h0a8.05,8.05,0,0,0,8-8V293.07q25.41-1.79,38.8-13.94,14-12.64,14-30.86Q270,233.62,262.39,224.62Zm-85.25-36Q168,182.3,168,170a26.09,26.09,0,0,1,8.87-20q8.31-7.65,24.2-9.38V199Q185.65,194.66,177.14,188.67Zm66.09,80.41q-8.91,7.37-26,9v-58.4q16.67,4.34,25.8,10.34,9.69,6.39,9.69,19.15A24.62,24.62,0,0,1,243.23,269.08Z" transform="translate(0 -0.01)"/><path class="cls-2" d="M209.24,348.43C132.5,348.43,70.07,286,70.07,209.25a138.69,138.69,0,0,1,6.62-42.53,6.52,6.52,0,0,1,8.49-4.14h0a6.48,6.48,0,0,1,3.91,8A126.23,126.23,0,0,0,265.86,322a6.47,6.47,0,0,1,8.54,2.62h0a6.52,6.52,0,0,1-2.76,9A139.39,139.39,0,0,1,209.24,348.43Z" transform="translate(0 -0.01)"/><path class="cls-2" d="M325.81,272.31h0a6.49,6.49,0,0,1-2.76-8.51A126.23,126.23,0,0,0,209.24,83.07a124.91,124.91,0,0,0-72.16,22.66,6.47,6.47,0,0,1-8.81-1.39h0A6.52,6.52,0,0,1,129.74,95a137.75,137.75,0,0,1,79.5-24.93c76.75,0,139.18,62.44,139.18,139.18a139.67,139.67,0,0,1-13.63,60.14A6.52,6.52,0,0,1,325.81,272.31Z" transform="translate(0 -0.01)"/><circle class="cls-2" cx="103.79" cy="131.34" r="8.85"/><circle class="cls-2" cx="302.43" cy="300.46" r="8.85"/><circle class="cls-2" cx="339.56" cy="98.09" r="8.85"/><circle class="cls-2" cx="78.92" cy="320.39" r="8.85"/></svg>