<svg id="Layer_1" data-name="Layer 1" xmlns="http://www.w3.org/2000/svg" viewBox="0 0 418.49 418.49"><defs><style>.cls-1{fill:#fff;}.cls-2{fill:#ff5f00;}</style></defs><circle class="cls-1" cx="209.24" cy="209.24" r="209.24"/><g id="_523_Brush_Paint_Roller" data-name=" 523 Brush Paint Roller"><path class="cls-2" d="M333.94,132h-7.47V121.8A29.8,29.8,0,0,0,296.72,92H89.38a29.8,29.8,0,0,0-29.89,29.71V162.3a29.81,29.81,0,0,0,29.75,29.84H296.59a29.8,29.8,0,0,0,29.84-29.75V145.27h7.46a12.07,12.07,0,0,1,12.3,11.82V213a12.08,12.08,0,0,1-11.86,12.27H193.25a7,7,0,0,0-6.92,6.92v20.25H166.08a7,7,0,0,0-6.92,6.93V326a33.57,33.57,0,1,0,67.13,1.11q0-.56,0-1.11V258.77a7.05,7.05,0,0,0-6.93-6.93H199.11V238.51H333.4A25.57,25.57,0,0,0,359,212.94V157.57A24.76,24.76,0,0,0,335.1,132C334.71,132,334.32,131.94,333.94,132Zm-20.79,30.37a16.6,16.6,0,0,1-16.51,16.5H89.39a16.6,16.6,0,0,1-16.51-16.5V138.87h46.89v6.93a20.26,20.26,0,0,0,40.51,0V132.48a6.93,6.93,0,0,0-13.86-.51,4.34,4.34,0,0,0,0,.51V145.8a6.93,6.93,0,0,1-13.86,0V132.48a7.06,7.06,0,0,0-6.92-6.94H72.33V121.8a16.6,16.6,0,0,1,16.51-16.5H265.73v40a6.93,6.93,0,0,1-13.86,0V125a7,7,0,0,0-6.92-6.92H218.3a7.06,7.06,0,0,0-6.93,6.92v13.3a6.93,6.93,0,1,1-13.85.5,4.17,4.17,0,0,1,0-.5v-6.92a6.93,6.93,0,0,0-13.86-.51v7.43a20.25,20.25,0,1,0,40.5,0v-7h13.32v13.34a20.25,20.25,0,1,0,40.5,0v-40H295a16.6,16.6,0,0,1,16.5,16.51v41ZM213,325.39a20.25,20.25,0,0,1-40.5,0V265.16h40v60.23Z"/><path class="cls-2" d="M179.93,325.39a13.2,13.2,0,1,0,0-.26Z"/><path class="cls-2" d="M93.08,251.84a20.25,20.25,0,1,0,20.24,20.25,20.24,20.24,0,0,0-20.24-20.25Zm0,26.64a6.93,6.93,0,1,1,6.92-6.92h0A7,7,0,0,1,93.08,278.48Z"/><path class="cls-2" d="M319.55,285.4a26.65,26.65,0,1,0,26.59,26.71v-.06A26.4,26.4,0,0,0,320,285.4Zm0,40A13.33,13.33,0,1,1,332.86,312h0a13.2,13.2,0,0,1-13.05,13.34h-.26Z"/><path class="cls-2" d="M259.86,318.45a6.93,6.93,0,1,1-6.93,6.93h0A6.93,6.93,0,0,1,259.86,318.45Z"/><path class="cls-2" d="M292.9,251.84a6.94,6.94,0,1,1-6.92,6.94h0A6.92,6.92,0,0,1,292.9,251.84Z"/><path class="cls-2" d="M339.8,78.7a6.94,6.94,0,1,1-6.94,6.94h0A6.94,6.94,0,0,1,339.8,78.7Z"/><path class="cls-2" d="M140,58.41A6.93,6.93,0,1,1,133,65.34h0A6.92,6.92,0,0,1,140,58.41Z"/><path class="cls-2" d="M140,211.87A6.93,6.93,0,1,1,133,218.8a6.93,6.93,0,0,1,6.93-6.93Z"/><path class="cls-2" d="M106.4,318.45a6.93,6.93,0,1,1-6.93,6.93,6.94,6.94,0,0,1,6.93-6.93Z"/></g></svg>