<svg id="Layer_1" data-name="Layer 1" xmlns="http://www.w3.org/2000/svg" viewBox="0 0 418.49 418.49"><defs><style>.cls-1{fill:#fff;}.cls-2{fill:#ff5f00;}</style></defs><circle class="cls-1" cx="209.24" cy="209.24" r="209.24"/><path class="cls-2" d="M209.24,355.84A127.57,127.57,0,0,1,81.81,228.41V101.35a6.41,6.41,0,0,1,4.78-6.2l121-32.28a6.2,6.2,0,0,1,3.31,0l121,32.31a6.41,6.41,0,0,1,4.78,6.2v127A127.58,127.58,0,0,1,209.24,355.84ZM94.66,106.26V228.35a114.59,114.59,0,1,0,229.17.06V106.26L209.24,75.69Z"/><path class="cls-2" d="M209.24,328A103.5,103.5,0,0,1,105.86,224.6V206.53a6.42,6.42,0,0,1,6.42-6.43h0a6.42,6.42,0,0,1,6.42,6.42h0V224.6a90.55,90.55,0,0,0,165.21,51.23,6.43,6.43,0,0,1,8.57-1.88h0a6.41,6.41,0,0,1,2.28,8.78,3.45,3.45,0,0,1-.2.32A104,104,0,0,1,209.24,328Z"/><path class="cls-2" d="M306.21,218.06h0a6.42,6.42,0,0,1-6.42-6.42h0V127.72l-90.55-24.17L118.7,127.72V161.5a6.41,6.41,0,0,1-6.42,6.42h0a6.41,6.41,0,0,1-6.42-6.41h0V122.79a6.41,6.41,0,0,1,4.76-6.21l97-25.89a6.41,6.41,0,0,1,3.31,0l97,25.87a6.4,6.4,0,0,1,4.76,6.2v88.88A6.42,6.42,0,0,1,306.21,218.06Z"/><path class="cls-2" d="M207.83,285.72c-40.35-.73-74.66-35.3-75.06-75.67A76,76,0,0,1,163,148.32a6.43,6.43,0,0,1,9,1.24,5,5,0,0,1,.33.47h0a6.47,6.47,0,0,1-1.64,8.58,63.21,63.21,0,0,0-25.09,50.8c.08,35.45,29.7,64.29,65.15,63.46a63.65,63.65,0,0,0,15-125.13,6.38,6.38,0,0,1-4.6-7.27h0a6.39,6.39,0,0,1,7.35-5.26l.53.11a76.49,76.49,0,0,1-21.18,150.4Z"/><path class="cls-2" d="M242.67,182.46a6.92,6.92,0,0,1,4.89,11.82l-48.17,48.17-9.8-9.79L170.93,214a6.93,6.93,0,0,1,9.79-9.8l18.67,18.67,38.38-38.37a6.93,6.93,0,0,1,4.9-2m0-11h0A17.79,17.79,0,0,0,230,176.68l-30.59,30.61L188.5,196.4a17.94,17.94,0,0,0-25.36,25.37l18.66,18.67,9.79,9.79a11,11,0,0,0,15.57,0l48.17-48.16a17.93,17.93,0,0,0-12.68-30.62Z"/><circle class="cls-2" cx="299.65" cy="246.53" r="6.93"/></svg>