<svg id="Layer_2" data-name="Layer 2" xmlns="http://www.w3.org/2000/svg" viewBox="0 0 75.7 75.7"><defs><style>.cls-1{fill:#fff;}.cls-2{fill:#818792;}</style></defs><circle class="cls-1" cx="37.85" cy="37.85" r="37.85"/><path class="cls-2" d="M67.82,60.75a7.89,7.89,0,0,0-4-13.06,13.94,13.94,0,0,0-8-10.93,7.95,7.95,0,1,0-11.65,0,14,14,0,0,0-8,10.93,7.89,7.89,0,0,0-4,13.06,13.93,13.93,0,0,0-8.12,12.63H28a10.06,10.06,0,0,1,20.11,0h3.88a10.06,10.06,0,0,1,20.11,0h3.89A13.93,13.93,0,0,0,67.82,60.75Zm-1.77-5.36a4.06,4.06,0,1,1-4.06-4A4.06,4.06,0,0,1,66.05,55.39Zm-16-28a4.06,4.06,0,1,1-4,4.06A4.06,4.06,0,0,1,50,27.35Zm-12,24a4.06,4.06,0,1,1-4.06,4A4.06,4.06,0,0,1,38,51.34Zm12,15a14,14,0,0,0-6.17-5.58,7.88,7.88,0,0,0-3.74-13,10,10,0,0,1,19.82,0,7.88,7.88,0,0,0-3.74,13A14,14,0,0,0,50,66.33Z" transform="translate(-12.15 -12.15)"/></svg>