<svg id="Layer_2" data-name="Layer 2" xmlns="http://www.w3.org/2000/svg" viewBox="0 0 75.7 75.7"><defs><style>.cls-1{fill:#fff;}.cls-2{fill:#818792;}</style></defs><circle class="cls-1" cx="37.85" cy="37.85" r="37.85"/><path class="cls-2" d="M72.36,29.49h-5l-5.16-5.95a5,5,0,0,0-6.48-.94L44.82,29.49H27.64a4.56,4.56,0,0,0-4.56,4.56V70.47A4.56,4.56,0,0,0,27.64,75H72.36a4.56,4.56,0,0,0,4.56-4.56V34.05A4.56,4.56,0,0,0,72.36,29.49ZM58.07,26.34a.6.6,0,0,1,.75.11l2.64,3H53.1ZM72.48,58.2H63.07a5.94,5.94,0,1,1,0-11.88h9.41ZM63.07,41.88a10.38,10.38,0,0,0,0,20.76h9.41v7.83a.12.12,0,0,1-.12.12l-44.84-.12.12-36.54,44.84.12v7.83Z" transform="translate(-12.15 -12.15)"/></svg>