<svg id="Layer_2" data-name="Layer 2" xmlns="http://www.w3.org/2000/svg" viewBox="0 0 75.7 75.7"><defs><style>.cls-1{fill:#fff;}.cls-2{fill:#818792;}</style></defs><circle class="cls-1" cx="37.85" cy="37.85" r="37.85"/><path class="cls-2" d="M67.17,21.26H32.83A4.71,4.71,0,0,0,28.12,26V70.73a4.72,4.72,0,0,0,4.71,4.72H48.47a2.22,2.22,0,0,0,0-4.44H32.83a.28.28,0,0,1-.27-.28V26a.27.27,0,0,1,.27-.27H67.17a.27.27,0,0,1,.27.27V52.49a2.22,2.22,0,1,0,4.44,0V26A4.71,4.71,0,0,0,67.17,21.26Z" transform="translate(-12.15 -12.15)"/><path class="cls-2" d="M39.4,35.56H61.16a2.22,2.22,0,1,0,0-4.44H39.4a2.22,2.22,0,0,0,0,4.44Z" transform="translate(-12.15 -12.15)"/><path class="cls-2" d="M39.4,46.21H61.16a2.22,2.22,0,1,0,0-4.44H39.4a2.22,2.22,0,0,0,0,4.44Z" transform="translate(-12.15 -12.15)"/><path class="cls-2" d="M39.4,56.86H50.28a2.22,2.22,0,0,0,0-4.44H39.4a2.22,2.22,0,0,0,0,4.44Z" transform="translate(-12.15 -12.15)"/><path class="cls-2" d="M68,68.47a9.35,9.35,0,0,0,1.23-4.57,9.48,9.48,0,1,0-4.21,7.87l3,3a2.22,2.22,0,0,0,3.14-3.14ZM54.77,63.9a5,5,0,1,1,5,5A5,5,0,0,1,54.77,63.9Z" transform="translate(-12.15 -12.15)"/></svg>