<svg id="Layer_2" data-name="Layer 2" xmlns="http://www.w3.org/2000/svg" viewBox="0 0 75.7 75.7"><defs><style>.cls-1{fill:#fff;}.cls-2{fill:#818792;}</style></defs><circle class="cls-1" cx="37.85" cy="37.85" r="37.85"/><path class="cls-2" d="M69.87,24.36H30.13a4.2,4.2,0,0,0-4.19,4.19V68.3a4.2,4.2,0,0,0,4.19,4.19H69.87a4.2,4.2,0,0,0,4.19-4.19V28.55A4.2,4.2,0,0,0,69.87,24.36Zm-.24,43.69H30.37V28.8H69.63Z" transform="translate(-12.15 -12.15)"/><path class="cls-2" d="M37,56.79a2.22,2.22,0,0,0,1.57-.65L50.09,44.66,61.27,55.84a2.22,2.22,0,1,0,3.14-3.14L50.09,38.38,35.47,53A2.22,2.22,0,0,0,37,56.79Z" transform="translate(-12.15 -12.15)"/></svg>