<?xml version="1.0" encoding="utf-8"?>
<!-- Generator: Adobe Illustrator 25.3.1, SVG Export Plug-In . SVG Version: 6.00 Build 0)  -->
<svg version="1.1" id="Layer_1" xmlns="http://www.w3.org/2000/svg" xmlns:xlink="http://www.w3.org/1999/xlink" x="0px" y="0px"
	 viewBox="0 0 711.3 711.3" style="enable-background:new 0 0 711.3 711.3;" xml:space="preserve">
<style type="text/css">
	.st0{fill-rule:evenodd;clip-rule:evenodd;fill:url(#instagram-_1_);}
	.st1{fill:url(#SVGID_1_);}
</style>
<g>
	<g id="Page-1">
		<g id="Dribbble-Light-Preview">
			<g id="icons">
				<linearGradient id="instagram-_1_" gradientUnits="userSpaceOnUse" x1="43.4259" y1="668.4471" x2="688.3639" y2="23.5092">
					<stop  offset="4.993059e-09" style="stop-color:#FFC954"/>
					<stop  offset="0.2393" style="stop-color:#FF7126"/>
					<stop  offset="0.5576" style="stop-color:#E32C9C"/>
					<stop  offset="0.7838" style="stop-color:#8D34BD"/>
					<stop  offset="1" style="stop-color:#1042E1"/>
				</linearGradient>
				<path id="instagram-_167_" class="st0" d="M268.5,146.1c-34.6,1.6-64.6,10-88.8,34.1c-24.2,24.1-32.6,54.3-34.2,88.5
					c-1,21.4-6.7,182.7,9.8,225c10.9,28.4,33.4,50.8,61.9,61.7c13.4,5.2,28.8,8.8,51.3,9.8c188.2,8.5,258,3.9,287.4-71.5
					c5.2-13.4,8.8-28.7,9.8-51.2c8.6-188.7-1.4-229.6-34.2-262.4C505.6,154.2,474.9,136.6,268.5,146.1 M270.2,527.3
					c-20.6-0.9-31.8-4.4-39.2-7.2c-18.5-7-33.1-21.5-40.1-40c-12.6-32.2-8.4-184.9-7.3-209.6c1.1-24.2,6-46.3,23.1-63.4
					c21.1-21.1,48.4-31.4,234.4-23c24.3,1.1,46.4,6,63.5,23c21.1,21.1,31.6,48.6,23.1,233.9c-0.9,20.6-4.4,31.7-7.3,39.2
					C501.3,529.1,457.3,535.9,270.2,527.3 M443.1,243.1c0,14,11.3,25.4,25.3,25.5s25.4-11.3,25.5-25.3s-11.3-25.4-25.3-25.5
					c0,0-0.1,0-0.1,0C454.5,217.8,443.1,229.1,443.1,243.1 M247.1,355.6c0,59.8,48.6,108.3,108.5,108.3s108.5-48.5,108.5-108.3
					s-48.6-108.2-108.5-108.2S247.1,295.9,247.1,355.6 M285.2,355.6c-0.1-38.9,31.4-70.5,70.3-70.6c38.9-0.1,70.5,31.4,70.6,70.3
					s-31.4,70.5-70.3,70.6c-0.1,0-0.1,0-0.2,0C316.8,425.9,285.3,394.5,285.2,355.6"/>
			</g>
		</g>
	</g>
	<linearGradient id="SVGID_1_" gradientUnits="userSpaceOnUse" x1="42.894" y1="667.9153" x2="687.832" y2="22.9773">
		<stop  offset="4.993059e-09" style="stop-color:#FFC954"/>
		<stop  offset="0.2393" style="stop-color:#FF7126"/>
		<stop  offset="0.5576" style="stop-color:#E32C9C"/>
		<stop  offset="0.7838" style="stop-color:#8D34BD"/>
		<stop  offset="1" style="stop-color:#1042E1"/>
	</linearGradient>
	<path class="st1" d="M355.7,711.3C159.2,711.2,0,551.8,0.2,355.3C0.3,212.5,85.8,83.6,217.2,28c181.5-75.2,389.6,11,464.8,192.5
		c74.5,179.7-9.3,386-188,462.9C450.3,701.9,403.2,711.4,355.7,711.3z M355.7,35C178.9,35,35,178.8,35,355.6
		s143.9,320.7,320.7,320.7s320.7-143.8,320.7-320.7S532.5,35,355.7,35L355.7,35z"/>
</g>
</svg>
