<svg id="Layer_1" data-name="Layer 1" xmlns="http://www.w3.org/2000/svg" viewBox="0 0 681.6 685.27"><defs><style>.cls-1{fill:#1c274c;}.cls-2{fill:#f10000;}.cls-3{fill:none;stroke:red;stroke-miterlimit:10;stroke-width:24px;}</style></defs><path class="cls-1" d="M485.28,483.64l0,.05L488,486.3C485.43,483.84,485.28,483.67,485.28,483.64Zm1.16-1.13a7.26,7.26,0,0,1,.71-.56l.16-.11-.3.13-.22.08-1.21,1.28.32-.32Zm-160.86-173-.46.55-.29.33,1.05-1.1c.07-.17.12-.31.16-.4C326,309,325.81,309.18,325.58,309.47Zm-1.1,1.25,0-.05s-.27-.21-3.4-3.15Zm-6-5.73.19.18A1.14,1.14,0,0,0,318.46,305Zm7.12,4.48-.46.55-.29.33,1.05-1.1c.07-.17.12-.31.16-.4C326,309,325.81,309.18,325.58,309.47Zm-1.1,1.25,0-.05s-.27-.21-3.4-3.15Zm-6-5.73.19.18A1.14,1.14,0,0,0,318.46,305ZM485.28,483.64l0,.05L488,486.3C485.43,483.84,485.28,483.67,485.28,483.64Zm1.16-1.13a7.26,7.26,0,0,1,.71-.56l.16-.11-.3.13-.22.08-1.21,1.28.32-.32Z" transform="translate(-75.09 -39.73)"/><path class="cls-2" d="M675.25,488.73l-63.68-36.65c-36.62-21.08-82-15-111.16,15.63l-13.62,14.34L487,482l.3-.13-.16.11a7.26,7.26,0,0,0-.71.56l-.54.5-.32.32,1.21-1.28c-1,.34-4,1.15-9.78.21-13.42-2.18-42.37-14-90.11-64.28-47.59-50.1-59.31-81-61.54-96.14-1.07-7.33,0-11.19.45-12.4,0-.07.05-.13.07-.19l-1.05,1.1.29-.33.46-.55c.23-.29.37-.5.46-.62,0,.09-.09.23-.16.4l8.17-8.6c32.25-33.95,34.53-87.09,7.51-125.31l-42-59.45C265.74,68.1,198.13,60,157.26,103.07a25,25,0,0,0,36.25,34.44c17.43-18.35,48.11-16.91,65.19,7.24l42,59.45c14.07,19.91,11.91,46.38-2.94,62l-9.56,10.07,1.51,1.45,1.19,1.13-1.19-1.13c-1.42-1.32-1.53-1.41-1.55-1.41l-.05.05-.1.11-.2.22-.45.5q-.47.54-1,1.23c-.73.93-1.56,2.06-2.43,3.42a53.39,53.39,0,0,0-5.23,10.82c-3.26,9.15-5,21.27-2.82,36.41,4.36,29.73,23.84,69.72,74.76,123.32,50.76,53.45,89.1,74.46,118.35,79.21,15,2.43,27.15.49,36.35-3.14a50.64,50.64,0,0,0,10.73-5.75c1.33-1,2.44-1.84,3.34-2.63.44-.39.84-.76,1.18-1.09.18-.16.33-.32.48-.47l.21-.22.1-.1.05-.05s-.22-.27-5-4.81l5,4.76,15.18-16c12.84-13.53,32.86-16.57,50-6.73l63.69,36.66c27.36,15.75,32.71,54.49,12.29,76l-47.35,49.86c-9.31,9.79-19,15-28.5,16-18.21,1.8-47,2.25-83-5.28a25,25,0,1,0-10.25,48.94c41.62,8.72,75.62,8.32,98.15,6.1,24.9-2.46,45.05-15.74,59.83-31.3l47.35-49.85C742.35,596.7,729.68,520.06,675.25,488.73ZM318.46,305a1.14,1.14,0,0,1,.19.18Zm6,5.73-3.35-3.2c3.13,2.94,3.37,3.15,3.4,3.15Zm160.75,173,0-.05s.15.2,2.71,2.66Z" transform="translate(-75.09 -39.73)"/><path class="cls-2" d="M389.94,652.55a25,25,0,0,1-34.47,7.86c-36.5-22.94-74.62-53.52-113.08-94C104.61,421.34,78.44,295.18,75.13,233.54a25,25,0,1,1,49.93-2.68c2.7,50.33,24.38,165.07,153.58,301.1,35.74,37.63,70.64,65.51,103.43,86.12A25,25,0,0,1,389.94,652.55Z" transform="translate(-75.09 -39.73)"/><path class="cls-2" d="M426.86,52.47c4.93-10.53,18-15.53,29.17-11.16,34.9,13.63,72.2,33.25,111.06,60.9,139.24,99,178.35,198.08,189.16,247.79,2.42,11.12-5.33,22.17-17.31,24.67s-23.64-4.47-26.05-15.59c-8.83-40.59-42.54-131-173.11-223.84-36.12-25.69-70.25-43.56-101.6-55.81C427,75.07,421.93,63,426.86,52.47Z" transform="translate(-75.09 -39.73)"/><path class="cls-3" d="M453.17,176a12.27,12.27,0,0,1,15.46-5.91,272.83,272.83,0,0,1,58.88,32.28c73.81,52.5,94.54,105,100.28,131.36,1.28,5.9-2.83,11.75-9.18,13.08s-12.53-2.37-13.81-8.27c-4.68-21.51-22.55-69.43-91.77-118.66a249.91,249.91,0,0,0-53.86-29.58A10.48,10.48,0,0,1,453.17,176Z" transform="translate(-75.09 -39.73)"/></svg>