<?xml version="1.0" encoding="utf-8"?>
<!-- Generator: Adobe Illustrator 25.3.1, SVG Export Plug-In . SVG Version: 6.00 Build 0)  -->
<svg version="1.1" id="Layer_1" xmlns="http://www.w3.org/2000/svg" xmlns:xlink="http://www.w3.org/1999/xlink" x="0px" y="0px"
	 viewBox="0 0 800 800" style="enable-background:new 0 0 800 800;" xml:space="preserve">
<style type="text/css">
	.st0{fill:#4BB252;}
	.st1{fill-rule:evenodd;clip-rule:evenodd;fill:#4BB252;}
</style>
<path class="st0" d="M66.7,733.3l47.1-171c-28.9-50.2-44.1-107.1-44-165c-0.3-182.5,147.8-330.7,330-330.7
	c88.4,0,171.4,34.3,233.9,96.8c30.8,30.6,55.2,67.1,71.8,107.2c16.6,40.1,25.1,83.2,24.9,126.6c0,182.1-148.2,330.3-330.3,330.3
	c-55.4,0-109.5-13.8-157.9-40.3L66.7,733.3z M249.8,627.8l10.1,6c42.3,25,90.6,38.3,139.8,38.3c151.2,0,274.5-123.3,274.5-274.5
	c0-73.2-28.6-142.5-80.3-194.2c-25.4-25.6-55.7-45.9-89-59.7c-33.3-13.8-69.1-21-105.2-20.9c-151.6,0-274.8,123.3-274.8,274.6
	c0,51.7,14.5,102.5,42,146.2l6.4,10.4l-27.9,101.5L249.8,627.8L249.8,627.8z"/>
<path class="st1" d="M317.3,258.9c-6-13.8-12.8-14.1-18.5-14.1c-5-0.3-10.4-0.3-16.1-0.3c-5.4,0-14.4,2-22.2,10.4
	c-7.7,8.4-28.9,28.2-28.9,68.9c0,40.7,29.6,80,33.6,85.4c4,5.4,57.1,91.4,141.1,124.7c69.9,27.6,84,22.2,99.1,20.5
	c15.1-1.7,48.7-19.8,55.8-39.3c6.7-19.1,6.7-35.9,4.7-39.3c-2-3.3-7.7-5.4-15.8-9.7c-8.4-4-48.7-24.2-56.4-26.9
	c-7.7-2.7-13.1-4-18.5,4c-5.4,8.4-21.2,26.9-26.2,32.3c-4.7,5.4-9.8,6-17.8,2c-8.4-4-34.9-12.8-66.5-41c-24.5-21.9-41-49.1-46-57.1
	c-4.7-8.4-0.7-12.8,3.7-16.8c3.7-3.7,8.4-9.7,12.4-14.4c4-4.7,5.4-8.4,8.4-13.8c2.7-5.4,1.3-10.4-0.7-14.4
	C340.5,316,324.7,275.3,317.3,258.9L317.3,258.9z"/>
</svg>
